<svg xmlns="http://www.w3.org/2000/svg" viewBox="0 0 128 128">
  <g transform="translate(64 64) scale(.975) translate(-64 -64)">
  <circle cx="64" cy="64" r="58" fill="#c4905d" stroke="#61402f" stroke-width="4"/>
  <circle cx="64" cy="64" r="51" fill="#e1ac6e"/>
  <path d="M27 79Q64 110 101 79" fill="none" stroke="#ffe3a5" stroke-width="5" stroke-linecap="round"/>
  <g fill="#7a492f"><circle cx="32" cy="91" r="4"/><circle cx="95" cy="87" r="3"/><circle cx="66" cy="108" r="3"/></g>  <path d="M28 103Q64 115 100 103" fill="none" stroke="#883d38" stroke-width="8" stroke-linecap="round"/>
  <path d="M31 48Q35 13 64 13Q93 13 97 48L89 70H39Z" fill="#a9b6b9" stroke="#3e4d54" stroke-width="4" stroke-linejoin="round"/>
  <path d="M48 24Q64 15 80 24M64 15V47" fill="none" stroke="#e8ddc6" stroke-width="4" stroke-linecap="round"/>
  <path d="M39 50H89V64Q64 74 39 64Z" fill="#d4e0d9" stroke="#43545b" stroke-width="4"/>
  <path d="M45 58Q64 65 83 58" fill="none" stroke="#667d82" stroke-width="3"/>
  <circle cx="51" cy="75" r="4" fill="#3e2b27"/><circle cx="76" cy="75" r="4" fill="#3e2b27"/>
  <path d="M53 91Q64 99 75 91" fill="none" stroke="#704636" stroke-width="4" stroke-linecap="round"/>  <path d="M82 87L100 84M84 94L99 95" fill="none" stroke="#e2bb88" stroke-width="3" stroke-linecap="round"/>
  </g>
</svg>
