<svg xmlns="http://www.w3.org/2000/svg" viewBox="0 0 96 96">
  <g transform="translate(48 48) scale(.91) translate(-48 -48)">
  <path d="M33 3H63L83 13L93 33V63L83 83L63 93H33L13 83L3 63V33L13 13Z" fill="#a97855" stroke="#573d35" stroke-width="4" stroke-linejoin="round"/>
  <path d="M34 12H62L79 20L87 34V62L79 77L62 85H34L18 77L11 62V34L18 20Z" fill="#c68c5e" stroke="#edc397" stroke-width="3" stroke-linejoin="round"/>
  <path d="M25 23V73M48 14V83M72 23V73M17 33H79M17 63H79" fill="none" stroke="#533c39" stroke-width="7" stroke-linecap="round"/>
  <path d="M48 30L65 48L48 66L31 48Z" fill="#f5d594" stroke="#49332f" stroke-width="4" stroke-linejoin="round"/>
  <path d="M48 37L58 48L48 59L38 48Z" fill="#d9ac66"/>
  <g fill="#ffe0a0"><circle cx="24" cy="23" r="3"/><circle cx="72" cy="23" r="3"/><circle cx="24" cy="73" r="3"/><circle cx="72" cy="73" r="3"/></g>
  </g>
</svg>
